<svg xmlns="http://www.w3.org/2000/svg" viewBox="0 0 500 428.3"><defs><style>.cls-1,.cls-7{fill:#d6d8e5;}.cls-1{opacity:0.4;}.cls-2{fill:#d5d6e0;}.cls-3{fill:#e9eaf4;}.cls-4{fill:#dfe0ea;}.cls-5{fill:#2b303f;}.cls-6{fill:#8c50ff;}.cls-8{fill:#edf0f9;}.cls-9{fill:#e2e5f2;}.cls-10{fill:#e5e5e5;}.cls-11{fill:#f4f4f4;}.cls-12{fill:#bfbfbf;}.cls-13{fill:#dceeff;}.cls-14{fill:#dbdbdb;}.cls-15{fill:#1e212d;}.cls-16{fill:#ffcea9;}.cls-17{fill:#ededed;}.cls-18{fill:#38226d;}.cls-19{fill:#9c73ff;}.cls-20{fill:#3a2c6d;}</style></defs><title>Web_hosting_SVG</title><g id="Слой_2" data-name="Слой 2"><g id="Слой_1-2" data-name="Слой 1"><polygon class="cls-1" points="107.37 356.22 106.48 354.68 249.36 272.19 251.14 273.21 107.37 356.22"/><rect class="cls-1" x="302.94" y="125.68" width="1.78" height="252.3" transform="translate(-66.17 389.04) rotate(-60)"/><polygon class="cls-1" points="416.09 225.6 339.67 181.48 416.09 137.36 492.51 181.48 416.09 225.6"/><polygon class="cls-2" points="490.09 171.73 423.44 133.25 356.8 171.73 347.02 166.09 347.02 177.37 347.02 177.37 423.44 221.49 499.86 177.37 499.86 166.09 490.09 171.73"/><polygon class="cls-3" points="423.44 210.21 347.02 166.09 423.44 121.97 499.86 166.09 423.44 210.21"/><polygon class="cls-3" points="423.44 73.25 360.01 36.62 423.44 0 486.88 36.62 423.44 73.25"/><polygon class="cls-4" points="360.01 36.62 360.01 167.2 423.44 203.83 423.44 73.25 360.01 36.62"/><polygon class="cls-2" points="423.44 203.83 486.88 167.2 486.88 36.62 423.44 73.25 423.44 203.83"/><polygon class="cls-5" points="444.99 89.23 434.01 95.57 434.01 82.89 444.99 76.55 444.99 89.23"/><polygon class="cls-5" points="479.8 69.13 448.34 87.29 448.34 74.61 479.8 56.45 479.8 69.13"/><polygon class="cls-5" points="444.99 107.71 434.01 114.05 434.01 101.37 444.99 95.03 444.99 107.71"/><polygon class="cls-5" points="479.8 87.61 448.34 105.78 448.34 93.09 479.8 74.94 479.8 87.61"/><polygon class="cls-5" points="444.99 126.19 434.01 132.53 434.01 119.85 444.99 113.51 444.99 126.19"/><polygon class="cls-5" points="479.8 106.1 448.34 124.26 448.34 111.58 479.8 93.42 479.8 106.1"/><polygon class="cls-5" points="444.99 144.67 434.01 151.01 434.01 138.33 444.99 131.99 444.99 144.67"/><polygon class="cls-5" points="479.8 124.58 448.34 142.74 448.34 130.06 479.8 111.9 479.8 124.58"/><polygon class="cls-5" points="444.99 163.15 434.01 169.5 434.01 156.81 444.99 150.47 444.99 163.15"/><polygon class="cls-5" points="479.8 143.06 448.34 161.22 448.34 148.54 479.8 130.38 479.8 143.06"/><polygon class="cls-5" points="378.85 76.91 367.94 70.61 367.94 58.01 378.85 64.31 378.85 76.91"/><polygon class="cls-5" points="413.43 96.87 382.18 78.83 382.18 66.23 413.43 84.28 413.43 96.87"/><polygon class="cls-5" points="378.85 95.27 367.94 88.97 367.94 76.38 378.85 82.67 378.85 95.27"/><polygon class="cls-5" points="413.43 115.24 382.18 97.19 382.18 84.6 413.43 102.64 413.43 115.24"/><polygon class="cls-5" points="378.85 113.63 367.94 107.33 367.94 94.74 378.85 101.04 378.85 113.63"/><polygon class="cls-5" points="413.43 133.6 382.18 115.56 382.18 102.96 413.43 121 413.43 133.6"/><polygon class="cls-5" points="378.85 132 367.94 125.7 367.94 113.1 378.85 119.4 378.85 132"/><polygon class="cls-5" points="413.43 151.96 382.18 133.92 382.18 121.32 413.43 139.36 413.43 151.96"/><polygon class="cls-5" points="378.85 150.36 367.94 144.06 367.94 131.46 378.85 137.76 378.85 150.36"/><polygon class="cls-5" points="413.43 170.32 382.18 152.28 382.18 139.68 413.43 157.72 413.43 170.32"/><polygon class="cls-6" points="360.01 159.88 423.44 195.84 486.88 158.59 486.88 167.2 423.44 203.83 360.01 167.2 360.01 159.88"/><path class="cls-5" d="M424.8,37.48a9.27,9.27,0,0,1-4.16,0l-3.15,1.82a16.08,16.08,0,0,0,10.48,0Z"/><path class="cls-5" d="M427.83,35.74,431,37.57a3.78,3.78,0,0,0,0-6.05l-3.16,1.82A2,2,0,0,1,427.83,35.74Z"/><path class="cls-5" d="M420.65,31.6a9.42,9.42,0,0,1,4.16,0L428,29.77a16.08,16.08,0,0,0-10.48,0Z"/><path class="cls-5" d="M417.63,33.34l-3.16-1.82a3.77,3.77,0,0,0,0,6.05l3.16-1.82A2,2,0,0,1,417.63,33.34Z"/><path class="cls-5" d="M433.3,38.9l3,1.76c4.84-3.59,4.84-8.65,0-12.24l-3,1.77C436.51,32.78,436.51,36.3,433.3,38.9Z"/><path class="cls-5" d="M430.28,40.64a21.13,21.13,0,0,1-15.1,0l-3.05,1.76a27.78,27.78,0,0,0,21.19,0Z"/><path class="cls-5" d="M415.18,28.44a21.15,21.15,0,0,1,15.09,0l3.05-1.76a27.87,27.87,0,0,0-21.19,0Z"/><path class="cls-5" d="M412.16,30.18l-3.05-1.76c-4.84,3.59-4.84,8.65,0,12.24l3.05-1.76C409,36.3,408.94,32.78,412.16,30.18Z"/><path class="cls-5" d="M438.63,42l3,1.75c7.72-5.29,7.72-13.08,0-18.38l-3,1.75C444.71,31.42,444.7,37.66,438.63,42Z"/><path class="cls-5" d="M435.61,43.72c-7.48,3.51-18.29,3.51-25.77,0l-3,1.75c9.17,4.45,22.66,4.45,31.83,0Z"/><path class="cls-5" d="M409.84,25.36c7.49-3.51,18.29-3.51,25.77,0l3-1.75c-9.17-4.46-22.66-4.46-31.83,0Z"/><path class="cls-5" d="M406.82,27.1l-3-1.75c-7.72,5.3-7.72,13.09,0,18.38l3-1.75C400.75,37.66,400.75,31.42,406.82,27.1Z"/><polygon class="cls-1" points="176.61 230.93 100.19 186.81 176.61 142.69 253.03 186.81 176.61 230.93"/><polygon class="cls-2" points="250.6 177.06 183.96 138.59 117.32 177.06 107.54 171.42 107.54 182.71 107.54 182.71 183.96 226.82 260.38 182.71 260.38 171.42 250.6 177.06"/><polygon class="cls-3" points="183.96 215.54 107.54 171.42 183.96 127.3 260.38 171.42 183.96 215.54"/><polygon class="cls-3" points="183.96 78.58 120.53 41.95 183.96 5.33 247.4 41.95 183.96 78.58"/><polygon class="cls-4" points="120.53 41.95 120.53 172.53 183.96 209.16 183.96 78.58 120.53 41.95"/><polygon class="cls-2" points="183.96 209.16 247.4 172.53 247.4 41.95 183.96 78.58 183.96 209.16"/><polygon class="cls-5" points="205.51 94.56 194.53 100.9 194.53 88.22 205.51 81.88 205.51 94.56"/><polygon class="cls-5" points="240.31 74.47 208.86 92.63 208.86 79.94 240.31 61.78 240.31 74.47"/><polygon class="cls-5" points="205.51 113.04 194.53 119.38 194.53 106.7 205.51 100.36 205.51 113.04"/><polygon class="cls-5" points="240.31 92.95 208.86 111.11 208.86 98.43 240.31 80.27 240.31 92.95"/><polygon class="cls-5" points="205.51 131.52 194.53 137.86 194.53 125.18 205.51 118.84 205.51 131.52"/><polygon class="cls-5" points="240.31 111.43 208.86 129.59 208.86 116.91 240.31 98.75 240.31 111.43"/><polygon class="cls-5" points="205.51 150 194.53 156.34 194.53 143.66 205.51 137.32 205.51 150"/><polygon class="cls-5" points="240.31 129.91 208.86 148.07 208.86 135.39 240.31 117.23 240.31 129.91"/><polygon class="cls-5" points="205.51 168.49 194.53 174.83 194.53 162.15 205.51 155.81 205.51 168.49"/><polygon class="cls-5" points="240.31 148.39 208.86 166.55 208.86 153.87 240.31 135.71 240.31 148.39"/><polygon class="cls-5" points="139.37 82.24 128.46 75.94 128.46 63.34 139.37 69.64 139.37 82.24"/><polygon class="cls-5" points="173.94 102.2 142.69 84.16 142.69 71.56 173.94 89.61 173.94 102.2"/><polygon class="cls-5" points="139.37 100.6 128.46 94.3 128.46 81.71 139.37 88.01 139.37 100.6"/><polygon class="cls-5" points="173.94 120.57 142.69 102.53 142.69 89.93 173.94 107.97 173.94 120.57"/><polygon class="cls-5" points="139.37 118.97 128.46 112.67 128.46 100.07 139.37 106.37 139.37 118.97"/><polygon class="cls-5" points="173.94 138.93 142.69 120.89 142.69 108.29 173.94 126.33 173.94 138.93"/><polygon class="cls-5" points="139.37 137.33 128.46 131.03 128.46 118.43 139.37 124.73 139.37 137.33"/><polygon class="cls-5" points="173.94 157.29 142.69 139.25 142.69 126.65 173.94 144.69 173.94 157.29"/><polygon class="cls-5" points="139.37 155.69 128.46 149.39 128.46 136.79 139.37 143.09 139.37 155.69"/><polygon class="cls-5" points="173.94 175.65 142.69 157.61 142.69 145.01 173.94 163.06 173.94 175.65"/><polygon class="cls-6" points="120.53 165.21 183.96 201.18 247.4 163.92 247.4 172.53 183.96 209.16 120.53 172.53 120.53 165.21"/><path class="cls-5" d="M185.32,42.82a9.42,9.42,0,0,1-4.16,0L178,44.64a16.11,16.11,0,0,0,10.49,0Z"/><path class="cls-5" d="M188.34,41.07l3.17,1.83a3.78,3.78,0,0,0,0-6l-3.16,1.82A2,2,0,0,1,188.34,41.07Z"/><path class="cls-5" d="M181.17,36.93a9.42,9.42,0,0,1,4.16,0l3.16-1.82a16.18,16.18,0,0,0-10.49,0Z"/><path class="cls-5" d="M178.15,38.67,175,36.85a3.78,3.78,0,0,0,0,6l3.16-1.82A2,2,0,0,1,178.15,38.67Z"/><path class="cls-5" d="M193.82,44.23l3,1.76c4.84-3.59,4.84-8.65,0-12.24l-3.05,1.77C197,38.12,197,41.63,193.82,44.23Z"/><path class="cls-5" d="M190.79,46a21.15,21.15,0,0,1-15.09,0l-3,1.76a27.78,27.78,0,0,0,21.19,0Z"/><path class="cls-5" d="M175.7,33.77a21.15,21.15,0,0,1,15.09,0L193.84,32a27.87,27.87,0,0,0-21.19,0Z"/><path class="cls-5" d="M172.68,35.51l-3.05-1.75c-4.84,3.58-4.84,8.64,0,12.23l3.05-1.76C169.47,41.63,169.46,38.11,172.68,35.51Z"/><path class="cls-5" d="M199.15,47.31l3,1.75c7.72-5.29,7.72-13.08,0-18.38l-3,1.75C205.22,36.75,205.22,43,199.15,47.31Z"/><path class="cls-5" d="M196.13,49.05c-7.49,3.51-18.29,3.51-25.77,0l-3,1.75c9.17,4.45,22.66,4.45,31.83,0Z"/><path class="cls-5" d="M170.36,30.69c7.49-3.5,18.29-3.51,25.77,0l3-1.75c-9.17-4.46-22.66-4.46-31.83,0Z"/><path class="cls-5" d="M167.34,32.43l-3-1.75c-7.72,5.3-7.72,13.09,0,18.38l3-1.75C161.27,43,161.27,36.76,167.34,32.43Z"/><polygon class="cls-1" points="292.1 296.86 215.68 252.74 292.1 208.62 368.52 252.74 292.1 296.86"/><polygon class="cls-2" points="366.09 242.99 299.45 204.51 232.81 242.99 223.03 237.35 223.03 248.63 223.03 248.63 299.45 292.75 375.87 248.64 375.87 237.35 366.09 242.99"/><polygon class="cls-3" points="299.45 281.47 223.03 237.35 299.45 193.23 375.87 237.35 299.45 281.47"/><polygon class="cls-3" points="299.45 144.51 236.02 107.88 299.45 71.26 362.88 107.89 299.45 144.51"/><polygon class="cls-4" points="236.02 107.88 236.02 238.46 299.45 275.09 299.45 144.51 236.02 107.88"/><polygon class="cls-2" points="299.45 275.09 362.88 238.47 362.88 107.89 299.45 144.51 299.45 275.09"/><polygon class="cls-5" points="321 160.49 310.02 166.83 310.02 154.15 321 147.81 321 160.49"/><polygon class="cls-5" points="355.8 140.4 324.35 158.56 324.35 145.88 355.8 127.72 355.8 140.4"/><polygon class="cls-5" points="321 178.97 310.02 185.31 310.02 172.63 321 166.29 321 178.97"/><polygon class="cls-5" points="355.8 158.88 324.35 177.04 324.35 164.36 355.8 146.2 355.8 158.88"/><polygon class="cls-5" points="321 197.45 310.02 203.79 310.02 191.11 321 184.77 321 197.45"/><polygon class="cls-5" points="355.8 177.36 324.35 195.52 324.35 182.84 355.8 164.68 355.8 177.36"/><polygon class="cls-5" points="321 215.93 310.02 222.27 310.02 209.59 321 203.25 321 215.93"/><polygon class="cls-5" points="355.8 195.84 324.35 214 324.35 201.32 355.8 183.16 355.8 195.84"/><polygon class="cls-5" points="321 234.42 310.02 240.76 310.02 228.08 321 221.74 321 234.42"/><polygon class="cls-5" points="355.8 214.32 324.35 232.48 324.35 219.8 355.8 201.64 355.8 214.32"/><polygon class="cls-5" points="254.85 148.17 243.94 141.87 243.94 129.28 254.85 135.57 254.85 148.17"/><polygon class="cls-5" points="289.43 168.13 258.18 150.09 258.18 137.5 289.43 155.54 289.43 168.13"/><polygon class="cls-5" points="254.85 166.53 243.94 160.23 243.94 147.64 254.85 153.94 254.85 166.53"/><polygon class="cls-5" points="289.43 186.5 258.18 168.46 258.18 155.86 289.43 173.9 289.43 186.5"/><polygon class="cls-5" points="254.85 184.9 243.94 178.6 243.94 166 254.85 172.3 254.85 184.9"/><polygon class="cls-5" points="289.43 204.86 258.18 186.82 258.18 174.22 289.43 192.26 289.43 204.86"/><polygon class="cls-5" points="254.85 203.26 243.94 196.96 243.94 184.36 254.85 190.66 254.85 203.26"/><polygon class="cls-5" points="289.43 223.22 258.18 205.18 258.18 192.58 289.43 210.62 289.43 223.22"/><polygon class="cls-5" points="254.85 221.62 243.94 215.32 243.94 202.72 254.85 209.02 254.85 221.62"/><polygon class="cls-5" points="289.43 241.58 258.18 223.54 258.18 210.94 289.43 228.99 289.43 241.58"/><polygon class="cls-6" points="236.02 231.14 299.45 267.11 362.88 229.85 362.88 238.47 299.45 275.09 236.02 238.46 236.02 231.14"/><path class="cls-5" d="M300.81,108.75a9.42,9.42,0,0,1-4.16,0l-3.16,1.82a16.11,16.11,0,0,0,10.49,0Z"/><path class="cls-5" d="M303.83,107l3.17,1.83a3.78,3.78,0,0,0,0-6l-3.16,1.82A2,2,0,0,1,303.83,107Z"/><path class="cls-5" d="M296.66,102.86a9.42,9.42,0,0,1,4.16,0L304,101a16.18,16.18,0,0,0-10.49,0Z"/><path class="cls-5" d="M293.64,104.6l-3.17-1.82a3.78,3.78,0,0,0,0,6l3.16-1.82A2,2,0,0,1,293.64,104.6Z"/><path class="cls-5" d="M309.31,110.16l3,1.76c4.84-3.59,4.84-8.65,0-12.24l-3.05,1.77C312.51,104.05,312.52,107.56,309.31,110.16Z"/><path class="cls-5" d="M306.28,111.91a21.15,21.15,0,0,1-15.09,0l-3.05,1.76a27.78,27.78,0,0,0,21.19,0Z"/><path class="cls-5" d="M291.19,99.7a21.15,21.15,0,0,1,15.09,0l3.05-1.76a27.87,27.87,0,0,0-21.19,0Z"/><path class="cls-5" d="M288.16,101.44l-3-1.75c-4.84,3.58-4.84,8.64,0,12.23l3.05-1.76C285,107.56,285,104,288.16,101.44Z"/><path class="cls-5" d="M314.64,113.24l3,1.75c7.72-5.29,7.72-13.08,0-18.38l-3,1.75C320.71,102.68,320.71,108.92,314.64,113.24Z"/><path class="cls-5" d="M311.62,115c-7.49,3.51-18.29,3.51-25.77,0l-3,1.75c9.17,4.45,22.66,4.45,31.83,0Z"/><path class="cls-5" d="M285.85,96.62c7.49-3.5,18.29-3.51,25.77,0l3-1.75c-9.17-4.46-22.66-4.46-31.83,0Z"/><path class="cls-5" d="M282.83,98.36l-3-1.75c-7.72,5.3-7.72,13.09,0,18.38l3-1.75C276.76,108.92,276.76,102.69,282.83,98.36Z"/><polygon class="cls-1" points="416.23 368.59 339.81 324.47 416.23 280.35 492.65 324.47 416.23 368.59"/><polygon class="cls-2" points="490.23 314.72 423.58 276.25 356.94 314.72 347.16 309.08 347.16 320.37 347.16 320.37 423.58 364.49 500 320.37 500 309.08 490.23 314.72"/><polygon class="cls-3" points="423.58 353.2 347.16 309.08 423.58 264.96 500 309.08 423.58 353.2"/><polygon class="cls-3" points="423.58 216.24 360.15 179.62 423.58 142.99 487.01 179.62 423.58 216.24"/><polygon class="cls-4" points="360.15 179.62 360.15 310.19 423.58 346.82 423.58 216.24 360.15 179.62"/><polygon class="cls-2" points="423.58 346.82 487.01 310.2 487.01 179.62 423.58 216.24 423.58 346.82"/><polygon class="cls-5" points="445.13 232.22 434.15 238.56 434.15 225.88 445.13 219.54 445.13 232.22"/><polygon class="cls-5" points="479.93 212.13 448.48 230.29 448.48 217.61 479.93 199.45 479.93 212.13"/><polygon class="cls-5" points="445.13 250.7 434.15 257.04 434.15 244.36 445.13 238.02 445.13 250.7"/><polygon class="cls-5" points="479.93 230.61 448.48 248.77 448.48 236.09 479.93 217.93 479.93 230.61"/><polygon class="cls-5" points="445.13 269.18 434.15 275.52 434.15 262.84 445.13 256.5 445.13 269.18"/><polygon class="cls-5" points="479.93 249.09 448.48 267.25 448.48 254.57 479.93 236.41 479.93 249.09"/><polygon class="cls-5" points="445.13 287.67 434.15 294.01 434.15 281.33 445.13 274.99 445.13 287.67"/><polygon class="cls-5" points="479.93 267.57 448.48 285.73 448.48 273.05 479.93 254.89 479.93 267.57"/><polygon class="cls-5" points="445.13 306.15 434.15 312.49 434.15 299.81 445.13 293.47 445.13 306.15"/><polygon class="cls-5" points="479.93 286.05 448.48 304.21 448.48 291.53 479.93 273.37 479.93 286.05"/><polygon class="cls-5" points="378.99 219.9 368.08 213.6 368.08 201.01 378.99 207.31 378.99 219.9"/><polygon class="cls-5" points="413.56 239.87 382.31 221.82 382.31 209.23 413.56 227.27 413.56 239.87"/><polygon class="cls-5" points="378.99 238.26 368.08 231.97 368.08 219.37 378.99 225.67 378.99 238.26"/><polygon class="cls-5" points="413.56 258.23 382.31 240.19 382.31 227.59 413.56 245.63 413.56 258.23"/><polygon class="cls-5" points="378.99 256.63 368.08 250.33 368.08 237.73 378.99 244.03 378.99 256.63"/><polygon class="cls-5" points="413.56 276.59 382.31 258.55 382.31 245.95 413.56 263.99 413.56 276.59"/><polygon class="cls-5" points="378.99 274.99 368.08 268.69 368.08 256.09 378.99 262.39 378.99 274.99"/><polygon class="cls-5" points="413.56 294.95 382.31 276.91 382.31 264.31 413.56 282.36 413.56 294.95"/><polygon class="cls-5" points="378.99 293.35 368.08 287.05 368.08 274.45 378.99 280.75 378.99 293.35"/><polygon class="cls-5" points="413.56 313.31 382.31 295.27 382.31 282.67 413.56 300.72 413.56 313.31"/><polygon class="cls-6" points="360.15 302.88 423.58 338.84 487.01 301.58 487.01 310.2 423.58 346.82 360.15 310.19 360.15 302.88"/><path class="cls-5" d="M424.94,180.48a9.27,9.27,0,0,1-4.16,0l-3.16,1.82a16.11,16.11,0,0,0,10.49,0Z"/><path class="cls-5" d="M428,178.73l3.17,1.83a3.78,3.78,0,0,0,0-6.05L428,176.33A2,2,0,0,1,428,178.73Z"/><path class="cls-5" d="M420.79,174.59a9.27,9.27,0,0,1,4.16,0l3.16-1.83a16.22,16.22,0,0,0-10.48,0Z"/><path class="cls-5" d="M417.77,176.33l-3.17-1.82a3.78,3.78,0,0,0,0,6.05l3.16-1.82A2,2,0,0,1,417.77,176.33Z"/><path class="cls-5" d="M433.44,181.89l3,1.76c4.84-3.58,4.84-8.65,0-12.23l-3.05,1.76C436.65,175.78,436.65,179.3,433.44,181.89Z"/><path class="cls-5" d="M430.42,183.64a21.18,21.18,0,0,1-15.1,0l-3.05,1.77a27.87,27.87,0,0,0,21.19,0Z"/><path class="cls-5" d="M415.32,171.43a21.21,21.21,0,0,1,15.09,0l3-1.76a27.87,27.87,0,0,0-21.19,0Z"/><path class="cls-5" d="M412.3,173.18l-3.05-1.76c-4.84,3.58-4.84,8.65,0,12.23l3.05-1.76C409.09,179.29,409.08,175.77,412.3,173.18Z"/><path class="cls-5" d="M438.77,185l3,1.75c7.72-5.29,7.72-13.08,0-18.38l-3,1.75C444.84,174.42,444.84,180.65,438.77,185Z"/><path class="cls-5" d="M435.75,186.72c-7.49,3.5-18.29,3.5-25.77,0l-3,1.75c9.17,4.45,22.66,4.45,31.83,0Z"/><path class="cls-5" d="M410,168.35c7.49-3.5,18.29-3.51,25.77,0l3-1.75c-9.17-4.46-22.66-4.45-31.83,0Z"/><path class="cls-5" d="M407,170.1l-3-1.75c-7.72,5.29-7.72,13.08,0,18.37l3-1.75C400.89,180.65,400.89,174.42,407,170.1Z"/><path class="cls-1" d="M49.31,426.28,3.51,399.83c-5.2-3-4.55-8.23,1.45-11.69l23.25-13.43c6-3.46,15.07-3.84,20.26-.84l45.8,26.45c5.2,3,4.54,8.23-1.45,11.69L69.57,425.44C63.57,428.9,54.5,429.28,49.31,426.28Z"/><path class="cls-7" d="M118.1,393.28V329.34l-97.75-11v64.34h0c-.07,2,1.06,3.84,3.48,5.24l45.8,26.44c5.19,3,14.27,2.62,20.26-.84l23.25-13.42c3.38-2,5.06-4.46,5-6.82Z"/><path class="cls-8" d="M118.08,336.32l0-7h-7.52L68.8,305.22c-5.19-3-14.26-2.62-20.26.84L25.29,319.48a13.81,13.81,0,0,0-1.2.78l-3.74-1.92s0,7.37,0,7.62h0c-.05,2,1.08,3.83,3.49,5.22l45.8,26.44c5.19,3,14.27,2.63,20.26-.84l23.25-13.42c3.48-2,5.15-4.61,4.93-7Z"/><path class="cls-9" d="M69.63,350l-45.8-26.44c-5.19-3-4.54-8.23,1.46-11.7l23.25-13.42c6-3.46,15.07-3.84,20.26-.84l45.8,26.44c5.19,3,4.54,8.24-1.46,11.7L89.89,349.18C83.9,352.65,74.82,353,69.63,350Z"/><g id="_Группа_" data-name="&lt;Группа&gt;"><path id="_Контур_" data-name="&lt;Контур&gt;" class="cls-10" d="M93.16,326h0A2.25,2.25,0,0,1,92,328l-21.1,12.18a2.26,2.26,0,0,1-2.25,0L39.13,323.07A2.24,2.24,0,0,1,38,321.12V321Z"/><path id="_Контур_2" data-name="&lt;Контур&gt;" class="cls-10" d="M92,328l-21.1,12.18a2.24,2.24,0,0,1-1.12.3V326H93.16A2.25,2.25,0,0,1,92,328Z"/><g id="_Группа_2" data-name="&lt;Группа&gt;"><path id="_Контур_3" data-name="&lt;Контур&gt;" class="cls-11" d="M70.61,339A1.59,1.59,0,0,1,69,339L38.3,321.29a.43.43,0,0,1,0-.82L60.93,307.4,93.16,326Z"/></g><g id="_Группа_3" data-name="&lt;Группа&gt;"><polygon id="_Контур_4" data-name="&lt;Контур&gt;" class="cls-12" points="50.92 326.01 51.08 326.1 60.93 331.79 66.33 328.67 66.48 328.58 56.48 322.8 50.92 326.01"/><polygon id="_Контур_5" data-name="&lt;Контур&gt;" class="cls-10" points="51.08 326.1 60.93 331.79 66.33 328.67 56.48 322.98 51.08 326.1"/></g><path class="cls-5" d="M84.61,327.13,86,328a.48.48,0,0,0,.45,0l1.35-.78c.14-.08.15-.19,0-.26l-1.42-.82a.48.48,0,0,0-.45,0l-1.35.78C84.51,327,84.5,327.06,84.61,327.13Z"/><path class="cls-5" d="M82.6,326l1.42.82a.5.5,0,0,0,.46,0l1.35-.78c.14-.08.15-.2,0-.26l-1.42-.82a.48.48,0,0,0-.45,0l-1.35.78C82.5,325.79,82.49,325.9,82.6,326Z"/><path class="cls-5" d="M80.59,324.81l1.42.82a.5.5,0,0,0,.46,0l1.35-.78c.13-.08.15-.2,0-.26l-1.42-.82a.48.48,0,0,0-.45,0l-1.35.78C80.49,324.63,80.48,324.74,80.59,324.81Z"/><path class="cls-5" d="M78.58,323.65l1.42.82a.5.5,0,0,0,.46,0l1.35-.78c.13-.08.15-.2,0-.26l-1.42-.82a.48.48,0,0,0-.45,0l-1.35.78C78.48,323.46,78.47,323.58,78.58,323.65Z"/><path class="cls-5" d="M76.57,322.49l1.42.82a.51.51,0,0,0,.45,0l1.36-.78c.13-.08.15-.2,0-.26l-1.42-.82a.51.51,0,0,0-.45,0l-1.36.79C76.47,322.3,76.46,322.42,76.57,322.49Z"/><path class="cls-5" d="M74.56,321.33l1.42.82a.51.51,0,0,0,.45,0l1.36-.78c.13-.08.15-.2,0-.27l-1.42-.82a.55.55,0,0,0-.45,0l-1.36.79C74.46,321.14,74.45,321.26,74.56,321.33Z"/><path class="cls-5" d="M72.55,320.17,74,321a.55.55,0,0,0,.45,0l1.36-.79c.13-.07.15-.19,0-.26l-1.42-.82a.55.55,0,0,0-.45,0l-1.36.78C72.45,320,72.43,320.1,72.55,320.17Z"/><path class="cls-5" d="M70.54,319l1.42.82a.55.55,0,0,0,.45,0l1.36-.79c.13-.07.15-.19,0-.26l-1.42-.82a.51.51,0,0,0-.45,0l-1.36.78C70.44,318.82,70.42,318.94,70.54,319Z"/><path class="cls-5" d="M68.53,317.84l1.42.82a.51.51,0,0,0,.45,0l1.36-.79c.13-.07.15-.19,0-.26l-1.42-.82a.51.51,0,0,0-.45,0l-1.36.78C68.43,317.66,68.41,317.78,68.53,317.84Z"/><path class="cls-5" d="M66.52,316.68l1.42.82a.48.48,0,0,0,.45,0l1.36-.78c.13-.08.14-.19,0-.26l-1.42-.82a.48.48,0,0,0-.45,0l-1.36.78C66.42,316.5,66.4,316.62,66.52,316.68Z"/><path class="cls-5" d="M64.51,315.52l1.42.82a.48.48,0,0,0,.45,0l1.36-.78c.13-.08.14-.19,0-.26l-1.42-.82a.48.48,0,0,0-.45,0l-1.36.78C64.41,315.34,64.39,315.46,64.51,315.52Z"/><path class="cls-5" d="M62.5,314.36l1.42.82a.48.48,0,0,0,.45,0l1.35-.78c.14-.08.15-.19,0-.26l-1.42-.82a.5.5,0,0,0-.46,0l-1.35.78C62.4,314.18,62.38,314.29,62.5,314.36Z"/><path class="cls-5" d="M60.49,313.2l1.42.82a.48.48,0,0,0,.45,0l1.35-.78c.14-.08.15-.19,0-.26l-1.42-.82a.5.5,0,0,0-.46,0l-1.35.78C60.39,313,60.37,313.13,60.49,313.2Z"/><path class="cls-5" d="M57.51,311.48l2.39,1.38a.48.48,0,0,0,.45,0l1.35-.78c.14-.08.15-.2,0-.26l-2.39-1.38a.48.48,0,0,0-.45,0l-1.36.78C57.41,311.3,57.39,311.41,57.51,311.48Z"/><path class="cls-5" d="M79.68,326.53l1.42.82a.53.53,0,0,0,.46,0l1.35-.79c.13-.07.15-.19,0-.26l-1.42-.82a.51.51,0,0,0-.45,0l-1.35.78C79.58,326.35,79.57,326.47,79.68,326.53Z"/><path class="cls-5" d="M77.67,325.37l1.42.82a.48.48,0,0,0,.45,0l1.36-.78c.13-.08.15-.19,0-.26l-1.42-.82a.48.48,0,0,0-.45,0l-1.36.78C77.57,325.19,77.55,325.3,77.67,325.37Z"/><path class="cls-5" d="M75.65,324.21l1.43.82a.48.48,0,0,0,.45,0l1.35-.78c.14-.08.15-.2,0-.26l-1.43-.82a.48.48,0,0,0-.45,0l-1.35.78C75.55,324,75.54,324.14,75.65,324.21Z"/><path class="cls-5" d="M73.64,323.05l1.42.82a.55.55,0,0,0,.45,0l1.36-.79c.13-.07.15-.19,0-.26L75.48,322a.51.51,0,0,0-.45,0l-1.36.78C73.54,322.86,73.52,323,73.64,323.05Z"/><path class="cls-5" d="M71.64,321.89l1.42.82a.5.5,0,0,0,.46,0l1.35-.78c.13-.08.15-.19,0-.26l-1.42-.82a.48.48,0,0,0-.45,0l-1.35.78C71.54,321.71,71.53,321.83,71.64,321.89Z"/><path class="cls-5" d="M69.63,320.73l1.42.82a.48.48,0,0,0,.45,0l1.36-.78c.13-.08.14-.2,0-.26l-1.42-.82a.48.48,0,0,0-.45,0l-1.36.78C69.53,320.55,69.51,320.66,69.63,320.73Z"/><path class="cls-5" d="M67.61,319.57l1.42.82a.57.57,0,0,0,.46,0l1.35-.78c.14-.08.15-.2,0-.27l-1.42-.82a.55.55,0,0,0-.45,0l-1.35.79C67.51,319.38,67.5,319.5,67.61,319.57Z"/><path class="cls-5" d="M65.6,318.4l1.42.82a.48.48,0,0,0,.45,0l1.36-.78c.13-.07.15-.19,0-.26l-1.42-.82a.48.48,0,0,0-.45,0l-1.36.78C65.5,318.22,65.48,318.34,65.6,318.4Z"/><path class="cls-5" d="M63.59,317.24l1.42.82a.48.48,0,0,0,.45,0l1.35-.78c.14-.08.15-.19,0-.26l-1.42-.82a.5.5,0,0,0-.46,0l-1.35.78C63.48,317.06,63.47,317.17,63.59,317.24Z"/><path class="cls-5" d="M61.57,316.08l1.42.82a.51.51,0,0,0,.45,0l1.36-.78c.13-.08.15-.2,0-.26L63.41,315a.51.51,0,0,0-.45,0l-1.36.79C61.47,315.89,61.46,316,61.57,316.08Z"/><path class="cls-5" d="M59.56,314.91l1.42.82a.51.51,0,0,0,.45,0l1.36-.79c.13-.07.14-.19,0-.26l-1.42-.82a.51.51,0,0,0-.45,0l-1.36.78C59.46,314.73,59.44,314.85,59.56,314.91Z"/><path class="cls-5" d="M57.54,313.75l1.42.82a.5.5,0,0,0,.46,0l1.35-.78c.14-.08.15-.19,0-.26l-1.42-.82a.48.48,0,0,0-.45,0l-1.35.78C57.44,313.57,57.43,313.69,57.54,313.75Z"/><path class="cls-5" d="M81.7,327.7l2.39,1.38a.55.55,0,0,0,.45,0l1.35-.78c.14-.08.15-.2,0-.27l-2.39-1.38a.55.55,0,0,0-.45,0l-1.36.79C81.6,327.51,81.58,327.63,81.7,327.7Z"/><path class="cls-5" d="M57.38,311.54l1.42.82c.11.06.11.17,0,.24l-1.44.83a.48.48,0,0,1-.42,0l-.11-.07a.45.45,0,0,0-.39,0l-1.51.88a.45.45,0,0,1-.42,0l-.91-.52a.14.14,0,0,1,0-.25l1.42-.81.29-.17.21-.13.22-.12,1.22-.7A.45.45,0,0,1,57.38,311.54Z"/><path class="cls-5" d="M76.81,331.63l1.42.82a.51.51,0,0,0,.45,0l1.36-.78c.13-.08.15-.2,0-.27l-1.42-.82a.55.55,0,0,0-.45,0l-1.36.79C76.71,331.44,76.7,331.56,76.81,331.63Z"/><path class="cls-5" d="M74.81,330.47l1.42.82a.48.48,0,0,0,.45,0l1.35-.78c.14-.08.15-.2,0-.26l-1.42-.82a.5.5,0,0,0-.46,0l-1.35.78C74.7,330.29,74.69,330.4,74.81,330.47Z"/><path class="cls-5" d="M72.8,329.31l1.42.82a.48.48,0,0,0,.45,0l1.36-.78c.13-.08.15-.19,0-.26l-1.42-.82a.48.48,0,0,0-.45,0l-1.36.78C72.7,329.13,72.69,329.25,72.8,329.31Z"/><path class="cls-5" d="M55.73,319.45l1.42.82a.51.51,0,0,0,.45,0l1.35-.79c.14-.07.15-.19,0-.26l-1.42-.82a.5.5,0,0,0-.46,0l-1.35.78C55.63,319.27,55.61,319.39,55.73,319.45Z"/><path class="cls-5" d="M53.72,318.3l1.42.82a.51.51,0,0,0,.45,0l1.36-.78c.13-.08.15-.2,0-.27l-1.42-.82a.55.55,0,0,0-.45,0l-1.36.79C53.62,318.11,53.61,318.23,53.72,318.3Z"/><path class="cls-5" d="M51.72,317.14l1.42.82a.48.48,0,0,0,.45,0l1.35-.78c.14-.08.15-.2,0-.26l-1.42-.82a.5.5,0,0,0-.46,0l-1.35.78C51.62,317,51.6,317.07,51.72,317.14Z"/><path class="cls-5" d="M49.71,316l1.42.82a.48.48,0,0,0,.45,0l1.36-.78c.13-.08.15-.19,0-.26l-1.42-.82a.48.48,0,0,0-.45,0l-1.36.78C49.61,315.8,49.6,315.91,49.71,316Z"/><path class="cls-5" d="M70.28,327.86,72.22,329a.51.51,0,0,0,.45,0l1.35-.79c.14-.07.15-.19,0-.26l-1.94-1.12a.55.55,0,0,0-.45,0l-1.36.79C70.18,327.67,70.16,327.79,70.28,327.86Z"/><path class="cls-5" d="M57.73,320.61l1.94,1.12a.48.48,0,0,0,.45,0l1.36-.78c.13-.08.14-.2,0-.26l-1.94-1.12a.48.48,0,0,0-.45,0l-1.36.78C57.63,320.43,57.62,320.54,57.73,320.61Z"/><path class="cls-5" d="M60.25,322.07l9.45,5.45a.48.48,0,0,0,.45,0l1.35-.78c.14-.08.15-.2,0-.26L62.09,321a.51.51,0,0,0-.45,0l-1.35.79C60.15,321.88,60.14,322,60.25,322.07Z"/><path class="cls-5" d="M77.19,327.34l1.42.82a.48.48,0,0,0,.45,0l1.36-.78c.13-.07.14-.19,0-.26L79,326.28a.48.48,0,0,0-.45,0l-1.36.78C77.09,327.16,77.07,327.28,77.19,327.34Z"/><path class="cls-5" d="M75.18,326.18l1.42.82a.51.51,0,0,0,.45,0l1.36-.79c.13-.07.15-.19,0-.26L77,325.12a.48.48,0,0,0-.45,0l-1.36.78C75.08,326,75.06,326.12,75.18,326.18Z"/><path class="cls-5" d="M73.17,325l1.42.82a.51.51,0,0,0,.45,0L76.4,325c.13-.07.15-.19,0-.26L75,324a.51.51,0,0,0-.45,0l-1.36.78C73.07,324.84,73.05,325,73.17,325Z"/><path class="cls-5" d="M71.16,323.86l1.42.82a.51.51,0,0,0,.45,0l1.36-.79c.13-.07.15-.19,0-.26L73,322.8a.51.51,0,0,0-.45,0l-1.36.78C71.06,323.68,71.05,323.8,71.16,323.86Z"/><path class="cls-5" d="M69.15,322.71l1.42.82a.57.57,0,0,0,.46,0l1.35-.79c.14-.07.15-.19,0-.26L71,321.64a.51.51,0,0,0-.45,0l-1.35.78C69.05,322.52,69,322.64,69.15,322.71Z"/><path class="cls-5" d="M67.15,321.55l1.42.82a.55.55,0,0,0,.45,0l1.35-.79c.14-.07.15-.19,0-.26L69,320.48a.57.57,0,0,0-.46,0l-1.35.78C67,321.36,67,321.48,67.15,321.55Z"/><path class="cls-5" d="M65.14,320.39l1.42.82a.55.55,0,0,0,.45,0l1.35-.78c.14-.08.15-.2,0-.27L67,319.32a.57.57,0,0,0-.46,0l-1.35.79C65,320.2,65,320.32,65.14,320.39Z"/><path class="cls-5" d="M63.13,319.23l1.42.82a.51.51,0,0,0,.45,0l1.36-.78c.13-.08.14-.2,0-.27L65,318.16a.55.55,0,0,0-.45,0l-1.36.79C63,319,63,319.16,63.13,319.23Z"/><path class="cls-5" d="M61.12,318.07l1.42.82a.51.51,0,0,0,.45,0l1.36-.78c.13-.08.15-.2,0-.27L63,317a.55.55,0,0,0-.45,0l-1.36.79C61,317.88,61,318,61.12,318.07Z"/><path class="cls-5" d="M59.11,316.91l1.42.82a.51.51,0,0,0,.45,0l1.36-.78c.13-.08.15-.2,0-.26L61,315.85a.51.51,0,0,0-.45,0l-1.36.79C59,316.72,59,316.84,59.11,316.91Z"/><path class="cls-5" d="M57.1,315.75l1.42.82a.53.53,0,0,0,.46,0l1.35-.78c.13-.08.15-.2,0-.26l-1.42-.82a.51.51,0,0,0-.45,0l-1.35.79C57,315.56,57,315.68,57.1,315.75Z"/><path class="cls-5" d="M55.09,314.59l1.42.82a.5.5,0,0,0,.46,0l1.35-.78c.14-.08.15-.2,0-.26l-1.42-.82a.51.51,0,0,0-.45,0l-1.35.79C55,314.4,55,314.52,55.09,314.59Z"/><path class="cls-5" d="M79.2,328.5l2.93,1.7a.5.5,0,0,0,.46,0l1.35-.78c.13-.08.15-.2,0-.26L81,327.44a.5.5,0,0,0-.46,0l-1.35.78C79.09,328.32,79.08,328.44,79.2,328.5Z"/><path class="cls-5" d="M76.24,329l1.42.82a.51.51,0,0,0,.45,0l1.35-.79c.14-.07.15-.19,0-.26L78.08,328a.53.53,0,0,0-.46,0l-1.35.78C76.13,328.86,76.12,329,76.24,329Z"/><path class="cls-5" d="M74.23,327.89l1.42.82a.55.55,0,0,0,.45,0l1.36-.79c.13-.07.14-.19,0-.26l-1.42-.82a.51.51,0,0,0-.45,0l-1.36.78C74.13,327.7,74.11,327.82,74.23,327.89Z"/><path class="cls-5" d="M72.22,326.73l1.42.82a.55.55,0,0,0,.45,0l1.36-.79c.13-.07.15-.19,0-.26l-1.42-.82a.51.51,0,0,0-.45,0l-1.36.78C72.12,326.54,72.1,326.66,72.22,326.73Z"/><path class="cls-5" d="M70.21,325.57l1.42.82a.55.55,0,0,0,.45,0l1.36-.78c.13-.08.15-.2,0-.27l-1.42-.82a.55.55,0,0,0-.45,0l-1.36.79C70.11,325.38,70.1,325.5,70.21,325.57Z"/><path class="cls-5" d="M68.2,324.41l1.42.82a.53.53,0,0,0,.46,0l1.35-.78c.13-.08.15-.2,0-.27L70,323.34a.55.55,0,0,0-.45,0l-1.35.79C68.1,324.22,68.09,324.34,68.2,324.41Z"/><path class="cls-5" d="M66.19,323.25l1.43.82a.51.51,0,0,0,.45,0l1.35-.78c.14-.08.15-.2,0-.26L68,322.19a.51.51,0,0,0-.45,0l-1.35.79C66.09,323.06,66.08,323.18,66.19,323.25Z"/><path class="cls-5" d="M64.19,322.09l1.42.82a.48.48,0,0,0,.45,0l1.35-.78c.14-.08.15-.2,0-.26L66,321a.53.53,0,0,0-.46,0l-1.35.79C64.09,321.9,64.07,322,64.19,322.09Z"/><path class="cls-5" d="M62.18,320.93l1.42.82a.48.48,0,0,0,.45,0l1.36-.78c.13-.08.14-.2,0-.26L64,319.87a.48.48,0,0,0-.45,0l-1.36.78C62.08,320.75,62.06,320.86,62.18,320.93Z"/><path class="cls-5" d="M60.17,319.77l1.42.82a.48.48,0,0,0,.45,0l1.36-.78c.13-.08.15-.2,0-.26L62,318.71a.48.48,0,0,0-.45,0l-1.36.78C60.07,319.59,60.05,319.7,60.17,319.77Z"/><path class="cls-5" d="M58.16,318.61l1.42.82a.48.48,0,0,0,.45,0l1.36-.78c.13-.08.15-.2,0-.26L60,317.55a.48.48,0,0,0-.45,0l-1.35.78C58.06,318.43,58.05,318.54,58.16,318.61Z"/><path class="cls-5" d="M56.15,317.45l1.42.82a.5.5,0,0,0,.46,0l1.35-.78c.14-.08.15-.19,0-.26L58,316.39a.48.48,0,0,0-.45,0l-1.35.78C56.05,317.27,56,317.38,56.15,317.45Z"/><path class="cls-5" d="M51.66,314.86l3.91,2.25a.48.48,0,0,0,.45,0l1.35-.78c.14-.08.15-.19,0-.26l-3.91-2.26a.55.55,0,0,0-.45,0l-1.36.79C51.56,314.67,51.54,314.79,51.66,314.86Z"/><path class="cls-5" d="M78.24,330.2l1.94,1.12a.48.48,0,0,0,.45,0l1.36-.78c.13-.08.15-.19,0-.26l-1.94-1.12a.48.48,0,0,0-.45,0l-1.35.78C78.14,330,78.13,330.14,78.24,330.2Z"/></g><g id="_Группа_4" data-name="&lt;Группа&gt;"><g id="_Группа_5" data-name="&lt;Группа&gt;"><path id="_Контур_6" data-name="&lt;Контур&gt;" class="cls-10" d="M93.16,326h0L60.93,307.4V282.05l.25-.56.26-.14h0a2.27,2.27,0,0,1,2.23,0l29.49,17a2.22,2.22,0,0,1,1.11,1.93v23.78C94.07,325.32,93.85,325.61,93.16,326Z"/><path id="_Контур_7" data-name="&lt;Контур&gt;" class="cls-10" d="M90.2,301.45,60.93,282.9v-.85l.25-.56.26-.14a2.27,2.27,0,0,1,2.23,0l29.49,17a2.25,2.25,0,0,1,.85.88Z"/><path id="_Контур_8" data-name="&lt;Контур&gt;" class="cls-13" d="M61.67,281.48l31,17.87a1.08,1.08,0,0,1,.54.94V326L60.93,307.4V281.91A.49.49,0,0,1,61.67,281.48Z"/><path id="_Контур_9" data-name="&lt;Контур&gt;" class="cls-11" d="M61.67,281.48l31,17.87a1.08,1.08,0,0,1,.54.94V326L60.93,307.4V281.91A.49.49,0,0,1,61.67,281.48Z"/><polygon id="_Контур_10" data-name="&lt;Контур&gt;" class="cls-14" points="93.16 326.01 93.16 325.09 60.93 306.48 60.93 307.4 93.16 326.01"/></g><polygon id="_Контур_11" data-name="&lt;Контур&gt;" class="cls-15" points="62.16 283.04 62.16 305.86 92.12 323.11 92.12 300.34 62.16 283.04"/></g><g id="Men_2"><path id="_Контур_12" data-name="&lt;Контур&gt;" class="cls-16" d="M8.66,303.64c-.27,2.4-3.13,12.72-2.51,16.25s10.36,9.45,10.36,9.45l1.35-6L12.46,318l1.46-10Z"/><path id="_Контур_13" data-name="&lt;Контур&gt;" class="cls-17" d="M16.21,293.47a4.27,4.27,0,0,0-5.43,1.64C9.34,297.49,7.85,305.64,7.72,307c0,0,2,2.78,5,2.32Z"/><path class="cls-18" d="M27.34,408.56a8.36,8.36,0,0,0,6.31-.77c1.52,0,9.78-3.48,10.9-.52,1,2.6-2.59,5-4.5,5.47-4.17,1-7.25,3.09-8.93,3.44-1.25.26-2.86.43-3.85-.55C26.07,414.46,26.18,410.11,27.34,408.56Z"/><path class="cls-19" d="M31.12,415.46c1.68-.35,4.76-2.43,8.93-3.44,1.6-.39,4.35-2.14,4.63-4.23.37,2.4-2.85,4.52-4.63,4.95-4.17,1-7.25,3.09-8.93,3.44-1.25.26-2.86.43-3.85-.55a2.34,2.34,0,0,1-.55-1A5,5,0,0,0,31.12,415.46Z"/><path class="cls-18" d="M14,402.55a8.38,8.38,0,0,0,6.31-.77c1.52.05,9.77-3.48,10.89-.52,1,2.6-2.59,5-4.5,5.47-4.16,1-7.25,3.09-8.92,3.44-1.25.26-2.86.43-3.86-.55C12.69,408.45,12.79,404.1,14,402.55Z"/><path class="cls-19" d="M17.74,409.45c1.67-.35,4.76-2.43,8.92-3.44,1.6-.39,4.36-2.14,4.64-4.23.37,2.4-2.85,4.52-4.64,5-4.16,1-7.25,3.09-8.92,3.44-1.25.26-2.86.43-3.86-.55a2.33,2.33,0,0,1-.54-1A5,5,0,0,0,17.74,409.45Z"/><path id="_Контур_14" data-name="&lt;Контур&gt;" class="cls-6" d="M13.8,380.13a49.34,49.34,0,0,1,1.9-9s-.57-7.8-.85-15.2c-.33-8.39-3.24-15.77-.94-22.47l25.89,5.76s-1.56,33.45-1.91,37.5a76.61,76.61,0,0,1-1.16,9.4c-1.18,6.49-3.1,21.94-3.1,21.94-2.74,1.59-6.34.71-6.34.71s.2-19.54.38-24.22c.21-5.71.39-5.27.39-5.27L27.2,365l-.56-7.08s-.72,5.2-1.18,9.84c-.41,4.05-1.39,7.71-2.48,15.24-.94,6.54-2.48,19.67-2.48,19.67-2.74,1.59-6.46.27-6.46.27S13.06,385.8,13.8,380.13Z"/><path id="_Контур_15" data-name="&lt;Контур&gt;" class="cls-16" d="M17.58,293.61c2,.1,3.44.61,3.68,0a24,24,0,0,0,.45-3.08c-.22-.57-.42-1.18-.42-1.18-2.48-1.53-3.26-4.2-3.58-7.32-.56-5.33,2.32-10,7.65-10.55,5-.52,8.69,3,9.67,7.83.53,2.39,1.58,6.9.16,10.82-.8,2.2-1.82,3.94-2.85,4.28a26.44,26.44,0,0,1-3-.26h0s-.27,1.48-.45,2.43-.11,1.45,1.78,2.61-2.86,3.56-6,3.33-6.6-2.11-7.55-4.12C16.13,296.18,16.22,293.55,17.58,293.61Z"/><path id="_Контур_16" data-name="&lt;Контур&gt;" class="cls-11" d="M20.43,293.9c-.55,1.37.84,3,4.55,4.2s4-.34,4-.34a74.4,74.4,0,0,1,7.2,3.71c2.22,1.56,3.21,6,3.51,13.64.34,8.79.37,21.82.08,24.07,0,0-4.15,4.14-9.47,3.7s-14.26-5.14-16.43-8.77c.06-7.7,1-9-.28-13.4-2.86-10.15-4.36-14.31-3-21.06,1.14-5.57,2.74-6.26,4.94-6.2A45.35,45.35,0,0,1,20.43,293.9Z"/><path id="_Контур_17" data-name="&lt;Контур&gt;" class="cls-16" d="M48.07,322.38c-4.36,1.1-5.38-1.66-6-3.93-1.38-5.52-2.13-10.5-3.17-13.63-1.21-3.69-2.49-4.28-4.29-5-2.1-.84-3.91.94-3.21,5.64a94.91,94.91,0,0,0,4,16c.55,1.72,1.77,4.77,3.59,6.25,2.25,1.82,5.64,1.74,10.77.46,2.18-.54,4.58-1.85,8.72-3.78,1.11-.52,2-.86,4.11-1.85a14.64,14.64,0,0,0,5.47-4.27c1.11-1.62,1.26-2.38,1-2.75s-.79-.36-1.38.32a12.12,12.12,0,0,1-3.14,2.91s1.37-1.43,2.12-2.35a12,12,0,0,0,1.65-2.7c.39-.94-.42-2.22-1-1.55s-.92,1.36-2,2.71a11.58,11.58,0,0,1-2,1.93,22.06,22.06,0,0,0,1.87-3,5,5,0,0,0,.68-2.71c0-.49-.73-1.08-1.39-.14a17.61,17.61,0,0,1-2.34,3.58c-1,1-1.84,1.63-1.87,1.34s.61-.86,1-2.06,0-2.48-.66-2.61-.54-.11-1.08,1a35.32,35.32,0,0,0-2,3.6,7.42,7.42,0,0,1-1.79,3.09C54.59,320.07,52.22,321.33,48.07,322.38Z"/><path id="_Контур_18" data-name="&lt;Контур&gt;" class="cls-17" d="M33,299.07c2.91-.43,5,.88,6.26,5.29s2.18,8,2.18,8a7.89,7.89,0,0,1-4.88,3.24c-3.48.85-4.74-.82-4.74-.82s-1-4.62-1.57-7.77S29.44,299.6,33,299.07Z"/><path class="cls-20" d="M34.86,278.63s4.6-7-5.37-8.43c-7.19-1-11.81,3.6-12.35,8.61-.51,4.79,2.44,9.77,4.57,11.74,1,.37,3.28.59,6.22-.75a35.4,35.4,0,0,0,.14-3.92S24.56,278.5,34.86,278.63Z"/></g></g></g></svg>